<?xml version="1.0" encoding="iso-8859-1"?>
<!-- Generator: Adobe Illustrator 19.0.0, SVG Export Plug-In . SVG Version: 6.00 Build 0)  -->
<svg version="1.1" id="Layer_1" xmlns="http://www.w3.org/2000/svg" xmlns:xlink="http://www.w3.org/1999/xlink" x="0px" y="0px"
	 viewBox="0 0 512 512" style="enable-background:new 0 0 512 512;" xml:space="preserve">
<g>
	<g>
		<g>
			<path d="M125.443,189.054v-4.202c0-8.517,6.906-15.422,15.422-15.422c8.516,0,15.422,6.904,15.422,15.422v4.471
				c26.487,3.717,53.325,16.483,72.565,39.433h281.697C496.902,100.358,387.957,0,256,0S15.098,100.358,1.451,228.755h49.402
				C70.585,205.221,98.306,192.395,125.443,189.054z M328.727,81.741c28.402,0,51.425,23.025,51.425,51.425
				c0,28.402-23.025,51.425-51.425,51.425c-28.401,0-51.425-23.025-51.425-51.425C277.302,104.764,300.325,81.741,328.727,81.741z"
				/>
			<path d="M125.443,298.306H41.574c-4.66,0-9.074-2.108-12.001-5.737c-2.927-3.629-4.057-8.385-3.072-12.942
				c1.539-7.125,3.604-13.782,6.081-20.03H0.046C0.606,299.91,10.515,338,27.721,371.786h97.723V298.306z"/>
			<path d="M156.286,423.581h120.941c8.516,0,15.422,6.904,15.422,15.422c0,8.517-6.906,15.422-15.422,15.422H121.984
				c-8.516,0-15.422-6.904-15.422-15.422c0-8.517,6.906-15.422,15.422-15.422h3.459v-20.952H46.276
				C92.615,468.71,169.342,512,256,512s163.385-43.29,209.724-109.371H156.286V423.581z"/>
			<path d="M378.402,271.826h133.094c0.248-4.051,0.401-8.127,0.458-12.226h-264.83c2.477,6.247,4.542,12.905,6.081,20.03
				c0.985,4.557-0.145,9.315-3.072,12.942c-2.927,3.629-7.341,5.737-12.001,5.737h-81.843v73.48h327.993
				c4.765-9.356,8.966-19.043,12.57-29.014h-50.475c-8.517-0.002-15.423-6.906-15.423-15.423s6.906-15.422,15.422-15.422h59.454
				c0.686-3.067,1.319-6.153,1.894-9.259h-129.32c-8.516,0-15.422-6.904-15.422-15.422S369.886,271.826,378.402,271.826z"/>
			<path d="M62.675,267.463h154.356c-15.736-35.391-49.846-48.47-77.178-48.47S78.412,232.072,62.675,267.463z"/>
		</g>
	</g>
</g>
<g>
</g>
<g>
</g>
<g>
</g>
<g>
</g>
<g>
</g>
<g>
</g>
<g>
</g>
<g>
</g>
<g>
</g>
<g>
</g>
<g>
</g>
<g>
</g>
<g>
</g>
<g>
</g>
<g>
</g>
</svg>
