<?xml version="1.0" encoding="iso-8859-1"?>
<!-- Generator: Adobe Illustrator 19.0.0, SVG Export Plug-In . SVG Version: 6.00 Build 0)  -->
<svg version="1.1" id="Layer_1" xmlns="http://www.w3.org/2000/svg" xmlns:xlink="http://www.w3.org/1999/xlink" x="0px" y="0px"
	 viewBox="0 0 512 512" style="enable-background:new 0 0 512 512;" xml:space="preserve">
<g>
	<g>
		<g>
			<path d="M419.623,271.422c-17.349,0-32.924,8.789-41.99,22.638h131.535c1.115-7.446,1.898-14.998,2.355-22.638H419.623z"/>
			<path d="M419.623,240.578h91.898C503.519,106.573,391.978,0,255.999,0C170.412,0,94.508,42.226,48.002,106.931h114.181
				c44.621,0,83.138,30.284,93.667,73.645l57.305,236.001l27.697-114.065C349.706,266.046,382.098,240.578,419.623,240.578z"/>
			<path d="M97.737,271.422H0.477c0.456,7.641,1.24,15.197,2.355,22.647c0.06,0,0.117-0.009,0.177-0.009h136.718
				C130.661,280.211,115.087,271.422,97.737,271.422z"/>
			<path d="M323.95,502.829c86.317-23.791,154.505-91.744,178.619-177.926H367.154L323.95,502.829z"/>
			<path d="M4.177,209.844c-1.838,10.053-3.077,20.312-3.7,30.734h97.261c37.526,0,69.917,25.467,78.772,61.934l50.25,206.948
				c0.071,0.293,0.114,0.586,0.167,0.879c9.544,1.084,19.242,1.661,29.071,1.661c11.722,0,23.256-0.808,34.565-2.343
				c0.015-0.066,0.022-0.133,0.037-0.197l6.684-27.525l-66.068-272.091H4.177z"/>
			<path d="M9.428,324.903c24.645,88.081,95.328,157.122,184.349,179.434l-43.571-179.434H9.428z"/>
			<path d="M162.183,137.774H28.987c-6.861,13.121-12.621,26.902-17.149,41.227h211.208
				C213.238,154.331,189.384,137.774,162.183,137.774z"/>
		</g>
	</g>
</g>
<g>
</g>
<g>
</g>
<g>
</g>
<g>
</g>
<g>
</g>
<g>
</g>
<g>
</g>
<g>
</g>
<g>
</g>
<g>
</g>
<g>
</g>
<g>
</g>
<g>
</g>
<g>
</g>
<g>
</g>
</svg>
