<?xml version="1.0" encoding="iso-8859-1"?>
<!-- Generator: Adobe Illustrator 19.0.0, SVG Export Plug-In . SVG Version: 6.00 Build 0)  -->
<svg version="1.1" id="Layer_1" xmlns="http://www.w3.org/2000/svg" xmlns:xlink="http://www.w3.org/1999/xlink" x="0px" y="0px"
	 viewBox="0 0 512 512" style="enable-background:new 0 0 512 512;" xml:space="preserve">
<g>
	<g>
		<g>
			<path d="M150.779,148.853l58.481,58.482c0.868,0.868,1.596,1.821,2.215,2.822l106.949-106.949
				c19.34-19.337,50.805-19.34,70.146,0l121.474,121.811C494.699,98.418,386.595,0,255.922,0C124.215,0,15.435,99.982,1.457,228.03
				l79.177-79.177C99.973,129.518,131.438,129.514,150.779,148.853z"/>
			<path d="M377.753,457.239c0,8.517-6.906,15.422-15.422,15.422s-15.422-6.904-15.422-15.422v-19.541L37.397,389.222
				C82.417,462.797,163.528,512,255.922,512c63.881,0,122.371-23.521,167.268-62.356l-45.437-7.116V457.239z"/>
			<path d="M366.744,125.002c-7.296-7.299-19.198-7.298-26.51,0.015L180.923,284.328c-3.01,3.01-6.96,4.517-10.905,4.517
				c-3.948,0-7.893-1.505-10.905-4.517c-6.022-6.022-6.022-15.787,0-21.811l31.16-31.158c-1.001-0.618-1.954-1.346-2.824-2.215
				l-58.481-58.481c-7.311-7.313-19.214-7.313-26.525,0L0.476,272.629c1.878,29.139,8.636,56.971,19.491,82.669
				c0.167,0.02,0.332,0.026,0.498,0.052l326.443,51.128v-23.507h-24.161c-22.394,0-40.61-18.218-40.61-40.61v-22.084
				c0-8.517,6.906-15.422,15.422-15.422s15.422,6.904,15.422,15.422v22.084c0,5.385,4.381,9.767,9.767,9.767h24.161V210.639
				c0-8.517,6.906-15.422,15.422-15.422s15.422,6.904,15.422,15.422v113.104h17.707c4.884,0,8.858-3.974,8.858-8.858v-31.736
				c0-8.517,6.906-15.422,15.422-15.422s15.422,6.904,15.422,15.422v31.736c0,21.891-17.811,39.702-39.702,39.702h-17.706v56.722
				l72.345,11.33c35.63-41.46,58.24-94.412,61.426-152.457L366.744,125.002z"/>
		</g>
	</g>
</g>
<g>
</g>
<g>
</g>
<g>
</g>
<g>
</g>
<g>
</g>
<g>
</g>
<g>
</g>
<g>
</g>
<g>
</g>
<g>
</g>
<g>
</g>
<g>
</g>
<g>
</g>
<g>
</g>
<g>
</g>
</svg>
