<?xml version="1.0" encoding="iso-8859-1"?>
<!-- Generator: Adobe Illustrator 19.0.0, SVG Export Plug-In . SVG Version: 6.00 Build 0)  -->
<svg version="1.1" id="Layer_1" xmlns="http://www.w3.org/2000/svg" xmlns:xlink="http://www.w3.org/1999/xlink" x="0px" y="0px"
	 viewBox="0 0 512.001 512.001" style="enable-background:new 0 0 512.001 512.001;" xml:space="preserve">
<g>
	<g>
		<g>
			<path d="M469.155,329.578v50.895c0,8.517-6.904,15.422-15.422,15.422H388.38h-84.202h-39.984h-52.323H44.64
				c-1.075,0-2.125-0.111-3.138-0.321C87.231,465.612,166.295,512.001,256,512.001c115.592,0,213.518-77.016,245.206-182.423
				L469.155,329.578L469.155,329.578z"/>
			<path d="M29.218,374.658v-45.081H10.794C15.517,345.289,21.711,360.368,29.218,374.658z"/>
			<path d="M256,0.001c-141.159,0-256,114.841-256,256c0,14.56,1.24,28.832,3.587,42.733h25.631v-0.322
				c0-8.517,6.904-15.422,15.422-15.422h52.426l5.023-161.898c-4.654-2.654-7.799-7.654-7.799-13.395
				c0-8.517,6.904-15.422,15.422-15.422h64.746c8.517,0,15.422,6.904,15.422,15.422c0,5.742-3.144,10.741-7.799,13.395l5.021,161.9
				h9.347v-14.695c0-5.57,3.004-10.707,7.859-13.44l14.168-7.973l3.902-125.79c-4.654-2.654-7.799-7.654-7.799-13.395
				c0-8.517,6.904-15.422,15.422-15.422h64.746c8.517,0,15.422,6.904,15.422,15.422c0,5.741-3.144,10.741-7.799,13.395l2.478,79.878
				c2.466,0.108,4.912,0.78,7.116,2.07c4.73,2.765,7.637,7.834,7.637,13.312v35.419l61.218-34.449
				c4.776-2.688,10.618-2.639,15.348,0.128c4.73,2.765,7.637,7.834,7.637,13.312v43.918l42.37-23.842
				c4.776-2.688,10.618-2.637,15.348,0.128c4.73,2.765,7.637,7.834,7.637,13.312v34.461h39.257
				c2.346-13.903,3.587-28.175,3.587-42.733C512,114.841,397.159,0.001,256,0.001z"/>
			<polygon points="253.172,123.117 249.881,229.209 274.437,215.391 271.574,123.117 			"/>
			<polygon points="132.882,123.117 127.924,282.99 156.243,282.99 151.285,123.117 			"/>
			<rect x="60.061" y="313.832" width="136.389" height="51.215"/>
			<polygon points="227.291,365.052 248.772,365.052 288.756,365.052 288.756,278.143 288.756,242.724 227.291,277.312 			"/>
			<polygon points="372.958,257.133 319.599,287.16 319.599,365.052 372.958,365.052 372.958,301.051 			"/>
			<polygon points="403.801,310.068 403.801,365.052 438.312,365.052 438.312,290.649 			"/>
		</g>
	</g>
</g>
<g>
</g>
<g>
</g>
<g>
</g>
<g>
</g>
<g>
</g>
<g>
</g>
<g>
</g>
<g>
</g>
<g>
</g>
<g>
</g>
<g>
</g>
<g>
</g>
<g>
</g>
<g>
</g>
<g>
</g>
</svg>
