<?xml version="1.0" encoding="iso-8859-1"?>
<!-- Generator: Adobe Illustrator 19.0.0, SVG Export Plug-In . SVG Version: 6.00 Build 0)  -->
<svg version="1.1" id="Layer_1" xmlns="http://www.w3.org/2000/svg" xmlns:xlink="http://www.w3.org/1999/xlink" x="0px" y="0px"
	 viewBox="0 0 512 512" style="enable-background:new 0 0 512 512;" xml:space="preserve">
<g>
	<g>
		<g>
			<path d="M339.179,177.613l-37.777,37.777c1.274,2.603,2.319,5.337,3.134,8.169h53.047
				C355.264,206.574,348.776,190.907,339.179,177.613z"/>
			<path d="M357.136,254.401h-53.55c-0.884,2.481-1.948,4.876-3.192,7.162l37.536,37.536
				C347.643,286.214,354.374,270.971,357.136,254.401z"/>
			<path d="M315.883,320.672l-31.758-31.758l10.402,43.597C302.144,329.412,309.303,325.424,315.883,320.672z"/>
			<path d="M154.42,223.557h53.048c0.728-2.534,1.647-4.989,2.747-7.345l-38.446-37.117
				C162.749,192.065,156.653,207.201,154.42,223.557z"/>
			<path d="M227.878,288.914l-31.758,31.758c6.58,4.75,13.739,8.739,21.356,11.839L227.878,288.914z"/>
			<path d="M234.205,395.292h43.591l-6.045-25.335c-5.166,0.611-10.42,0.935-15.75,0.935s-10.584-0.324-15.75-0.935L234.205,395.292
				z"/>
			<path d="M211.608,261.564c-1.245-2.287-2.309-4.682-3.192-7.162h-53.55c2.762,16.571,9.494,31.813,19.206,44.698L211.608,261.564
				z"/>
			<path d="M511.99,257.51h-53.311c-8.517,0-15.422-6.904-15.422-15.422s6.904-15.422,15.422-15.422h51.64
				c-5.763-50.279-26.131-96.182-56.77-133.325c-0.495,0.048-0.995,0.076-1.502,0.076h-82.227c-8.517,0-15.422-6.904-15.422-15.422
				s6.904-15.422,15.422-15.422h53.711C378.602,23.609,320.012,0,256.01,0C156.653,0,70.336,56.898,27.926,139.822H78.9
				c8.517,0,15.422,6.904,15.422,15.422s-6.904,15.422-15.422,15.422H14.653C5.184,197.37,0.01,226.09,0.01,256
				c0,16.238,1.538,32.12,4.441,47.527h42.063c8.517,0,15.422,6.904,15.422,15.422s-6.904,15.422-15.422,15.422H12.296
				c6.997,21.709,16.816,42.161,29.03,60.922h161.169l7.751-32.486c-13.141-4.813-25.318-11.64-36.161-20.102l-3.687,3.687
				c-3.012,3.01-6.958,4.517-10.905,4.517s-7.894-1.507-10.905-4.517c-6.022-6.022-6.022-15.787,0-21.811l3.519-3.519
				c-15.102-18.739-25.256-41.625-28.438-66.662h-4.152c-8.517,0-15.422-6.904-15.422-15.422s6.904-15.422,15.422-15.422h3.811
				c2.569-24.632,11.867-47.292,26.021-66.104l-4.027-3.888c-6.129-5.916-6.3-15.679-0.384-21.806
				c5.914-6.13,15.679-6.3,21.806-0.384l3.855,3.721c19.434-16.236,43.54-27.05,69.979-30.108v-2.495
				c0-8.517,6.904-15.422,15.422-15.422c8.517,0,15.422,6.904,15.422,15.422v2.495c25.615,2.963,49.039,13.207,68.148,28.609
				l2.033-2.033c6.022-6.021,15.787-6.021,21.809,0c6.022,6.024,6.022,15.787,0,21.811l-2.201,2.201
				c14.961,19.172,24.806,42.522,27.46,67.979h3.811c8.517,0,15.422,6.904,15.422,15.422s-6.904,15.422-15.422,15.422h-4.152
				c-3.18,25.036-13.334,47.923-28.438,66.662l3.519,3.519c6.022,6.022,6.022,15.787,0,21.811
				c-3.012,3.012-6.958,4.517-10.905,4.517c-3.946,0-7.894-1.505-10.905-4.517l-3.687-3.687
				c-10.843,8.462-23.02,15.289-36.161,20.102l7.751,32.486h0.009h161.177v0.002C496.554,355.572,511.695,308.27,511.99,257.51z"/>
			<path d="M264.524,339.666l-8.524-35.723l-8.524,35.723c2.813,0.233,5.651,0.383,8.524,0.383S261.711,339.899,264.524,339.666z"/>
			<path d="M231.147,193.551c2.972-1.687,6.127-3.084,9.432-4.147v-53.304c-17.775,2.693-34.049,9.982-47.616,20.588
				L231.147,193.551z"/>
			<path d="M271.422,189.405c3.013,0.969,5.91,2.205,8.648,3.697l37.536-37.536c-13.27-10.004-29.036-16.867-46.185-19.464V189.405z
				"/>
			<polygon points="223.111,441.83 288.9,441.83 285.155,426.135 226.855,426.135 			"/>
			<path d="M320.618,441.828h27.913h0.009v0.002c8.517,0,15.422,6.904,15.422,15.422s-6.904,15.422-15.422,15.422h-0.009h-40.035
				c-0.022,0-0.043,0.003-0.065,0.003c-0.002,0-0.003,0-0.006,0c-0.002,0-0.003,0-0.005,0c-0.029,0-0.059-0.003-0.088-0.003H203.678
				c-0.029,0-0.059,0.003-0.088,0.003c-0.002,0-0.003,0-0.005,0c-0.002,0-0.003,0-0.006,0c-0.022,0-0.043-0.003-0.065-0.003H163.48
				h-0.009c-8.517,0-15.422-6.904-15.422-15.422s6.904-15.422,15.422-15.422h0.009h27.912l3.744-15.693H64.905
				C111.825,478.783,180.106,512,256.01,512s144.185-33.217,191.106-85.865H316.873L320.618,441.828z"/>
		</g>
	</g>
</g>
<g>
</g>
<g>
</g>
<g>
</g>
<g>
</g>
<g>
</g>
<g>
</g>
<g>
</g>
<g>
</g>
<g>
</g>
<g>
</g>
<g>
</g>
<g>
</g>
<g>
</g>
<g>
</g>
<g>
</g>
</svg>
