<?xml version="1.0" encoding="iso-8859-1"?>
<!-- Generator: Adobe Illustrator 19.0.0, SVG Export Plug-In . SVG Version: 6.00 Build 0)  -->
<svg version="1.1" id="Layer_1" xmlns="http://www.w3.org/2000/svg" xmlns:xlink="http://www.w3.org/1999/xlink" x="0px" y="0px"
	 viewBox="0 0 512 512" style="enable-background:new 0 0 512 512;" xml:space="preserve">
<g>
	<g>
		<g>
			<path d="M29.444,375.335C72.415,456.537,157.78,512,255.868,512c75.707,0,143.832-33.044,190.742-85.453
				c-42.348,8.059-85.606,12.152-129.036,12.152C218.033,438.699,119.175,416.865,29.444,375.335z"/>
			<path d="M156.511,96.339l73.891,85.677L397.476,42.841C356.893,15.792,308.192,0,255.868,0
				C140.642,0,42.964,76.529,10.959,181.425L135.98,93.782C142.465,89.238,151.338,90.342,156.511,96.339z"/>
			<path d="M422.691,61.98L238.494,215.416c-6.466,5.387-16.054,4.594-21.549-1.778l-74.681-86.594L4.095,223.904
				c-0.762,0.534-1.559,0.981-2.375,1.36c-0.441,3.669-0.82,7.358-1.104,11.071l291.491,23.62l30.865-80.099
				c2.293-5.951,8.013-9.876,14.39-9.876s12.097,3.925,14.39,9.876l12.635,32.788l16.725-71.208
				c1.636-6.969,7.854-11.895,15.013-11.895c7.159,0,13.377,4.926,15.013,11.895l18.841,80.217l13.415-35.889
				c2.244-6.001,7.962-9.99,14.368-10.023c0.026,0,0.052,0,0.079,0c6.374,0,12.095,3.923,14.39,9.876l35.374,91.798l3.336,0.27
				c0.603-7.153,0.928-14.382,0.928-21.688C511.868,178.514,477.259,108.963,422.691,61.98z"/>
			<path d="M473.263,340.196v32.187c0,8.517-6.904,15.422-15.422,15.422s-15.422-6.904-15.422-15.422v-32.187h-4.061h-26.811v32.187
				c0,8.517-6.904,15.422-15.422,15.422c-8.517,0-15.422-6.904-15.422-15.422v-32.187h-26.811c-0.373,0-0.74-0.037-1.109-0.063
				v26.487c0,8.517-6.904,15.422-15.422,15.422s-15.422-6.904-15.422-15.422v-32.187h-36.064c-5.083,0-9.839-2.505-12.715-6.695
				c-2.876-4.19-3.502-9.529-1.675-14.271l9.057-23.503L0.13,267.242c0.975,22.439,4.836,44.143,11.249,64.734
				c93.625,49.641,199.496,75.879,306.196,75.879c52.67,0,105.071-6.27,155.747-18.637c0.407-0.1,0.814-0.168,1.221-0.234
				c9.33-15.286,17.092-31.627,23.086-48.79h-24.366V340.196z"/>
			<polygon points="351.871,265.941 337.364,228.292 308.348,303.59 343.028,303.59 			"/>
			<polygon points="410.523,273.707 396.127,212.411 373.358,309.353 397.199,309.353 			"/>
			<polygon points="458.06,234.624 430.127,309.353 486.857,309.353 			"/>
		</g>
	</g>
</g>
<g>
</g>
<g>
</g>
<g>
</g>
<g>
</g>
<g>
</g>
<g>
</g>
<g>
</g>
<g>
</g>
<g>
</g>
<g>
</g>
<g>
</g>
<g>
</g>
<g>
</g>
<g>
</g>
<g>
</g>
</svg>
