<?xml version="1.0" encoding="iso-8859-1"?>
<!-- Generator: Adobe Illustrator 19.0.0, SVG Export Plug-In . SVG Version: 6.00 Build 0)  -->
<svg version="1.1" id="Layer_1" xmlns="http://www.w3.org/2000/svg" xmlns:xlink="http://www.w3.org/1999/xlink" x="0px" y="0px"
	 viewBox="0 0 512 512" style="enable-background:new 0 0 512 512;" xml:space="preserve">
<g>
	<g>
		<g>
			<path d="M343.305,255.725c-4.95,8.453-11.167,16.973-18.868,24.22v72.062c0.483-0.003,0.965-0.017,1.448-0.017
				c15.69,0,31.082,1.94,45.906,5.695v-52.281c-12.314-11.89-20.189-27.423-24.795-39.092
				C345.625,262.838,344.413,259.294,343.305,255.725z"/>
			<path d="M277.248,282.653c-4.249,10.763-11.491,25.049-22.79,36.119v47.412c12.53-5.223,25.639-9.052,39.136-11.409v-74.832
				c-4.192-3.943-7.95-8.261-11.298-12.746C280.908,272.416,279.24,277.606,277.248,282.653z"/>
			<path d="M256,0C114.841,0,0,114.841,0,256c0,27.862,4.491,54.693,12.758,79.824c24.798-19.862,55.358-30.672,87.591-30.672
				c37.521,0,72.795,14.61,99.326,41.142l23.939,23.938v-51.461c-11.299-11.07-18.541-25.356-22.79-36.119
				c-6.113-15.485-9.478-32.281-9.478-47.294c0-15.096,3.348-33.627,9.185-50.841c5.109-15.067,14.302-35.422,29.078-46.836
				c5.555-4.289,13.301-4.289,18.856,0c2.622,2.025,5.06,4.343,7.338,6.85c1.96-10.635,4.768-21.567,8.274-31.903
				c6.301-18.58,17.576-43.639,35.512-57.494c5.555-4.29,13.301-4.29,18.856,0c17.935,13.855,29.21,38.912,35.513,57.494
				c2.159,6.365,4.05,12.956,5.646,19.565c4.907-8.226,10.906-15.909,18.184-21.53c5.552-4.29,13.304-4.29,18.856,0
				c15.763,12.177,25.605,33.997,31.084,50.159c6.284,18.531,9.888,38.466,9.888,54.696c0,16.116-3.618,34.154-10.185,50.791
				c-4.606,11.67-12.481,27.201-24.795,39.092v63.106c20.019,9.1,38.449,21.815,54.463,37.829l3.438,3.436
				C492.829,366.931,512,313.665,512,256C512,114.841,397.159,0,256,0z"/>
			<path d="M325.886,382.834c-41.325,0-80.179,16.094-109.401,45.317l-62.584,62.583C185.197,504.4,219.725,512,256,512
				c72.391,0,137.853-30.21,184.46-78.677l-5.172-5.172C406.067,398.928,367.212,382.834,325.886,382.834z"/>
			<path d="M205.824,396.061l-27.958-27.958c-20.705-20.705-48.234-32.108-77.517-32.108c-28.317,0-54.975,10.692-75.427,30.12
				c21.87,45.708,56.911,83.951,100.176,109.801l69.575-69.576C198.269,402.744,201.993,399.323,205.824,396.061z"/>
			<path d="M309.015,89.851c-5.783,8.189-11.244,19.456-15.73,32.685c-6.139,18.102-9.805,38.024-9.805,53.293
				c0,14.549,3.495,31.744,9.588,47.18c4.412,11.182,9.893,20.858,15.949,28.299c6.055-7.439,11.535-17.117,15.949-28.297
				c6.093-15.436,9.588-32.631,9.588-47.18c0-15.269-3.666-35.191-9.804-53.293C320.259,109.307,314.798,98.04,309.015,89.851z"/>
			<path d="M387.212,276.32c4.333-5.828,8.269-13.081,11.528-21.333c5.103-12.926,8.03-27.312,8.03-39.466
				c0-12.806-3.086-29.551-8.255-44.791c-3.291-9.703-7.179-18.116-11.302-24.611c-4.124,6.496-8.012,14.908-11.304,24.611
				c-5.168,15.24-8.254,31.985-8.254,44.789c0,12.154,2.925,26.539,8.03,39.466C378.942,263.239,382.879,270.492,387.212,276.32z"/>
			<path d="M239.036,173.67c-3.391,5.694-6.599,12.8-9.296,20.753c-4.727,13.944-7.55,29.247-7.55,40.935
				c0,11.067,2.669,24.177,7.325,35.97c2.727,6.907,5.967,13.036,9.523,18.087c3.556-5.049,6.796-11.179,9.523-18.085
				c4.656-11.793,7.325-24.903,7.325-35.97c0-11.688-2.824-26.991-7.552-40.935C245.635,186.471,242.427,179.363,239.036,173.67z"/>
		</g>
	</g>
</g>
<g>
</g>
<g>
</g>
<g>
</g>
<g>
</g>
<g>
</g>
<g>
</g>
<g>
</g>
<g>
</g>
<g>
</g>
<g>
</g>
<g>
</g>
<g>
</g>
<g>
</g>
<g>
</g>
<g>
</g>
</svg>
