<?xml version="1.0" encoding="iso-8859-1"?>
<!-- Generator: Adobe Illustrator 19.0.0, SVG Export Plug-In . SVG Version: 6.00 Build 0)  -->
<svg version="1.1" id="Layer_1" xmlns="http://www.w3.org/2000/svg" xmlns:xlink="http://www.w3.org/1999/xlink" x="0px" y="0px"
	 viewBox="0 0 512 512" style="enable-background:new 0 0 512 512;" xml:space="preserve">
<g>
	<g>
		<g>
			<path d="M256,0C114.841,0,0,114.841,0,256c0,8.872,0.455,17.639,1.34,26.282h173.617c9.6-6.681,20.057-12.208,31.173-16.384
				c-7.279-22.369-8.263-46.652-2.608-69.689c4.437-18.077,12.885-34.921,24.485-49.311c-10.51-5.068-23.533-3.086-32.008,5.802
				c-3.03,3.178-7.094,4.779-11.164,4.779c-3.823,0-7.654-1.414-10.639-4.261c-6.164-5.879-6.395-15.641-0.518-21.803
				c14.498-15.206,35.297-20.867,54.486-16.816c-10.363-15.815-29.101-25.324-49.113-22.927
				c-8.453,1.024-16.134-5.018-17.149-13.476c-1.015-8.456,5.018-16.134,13.475-17.149c37.718-4.529,72.61,17.377,86.107,51.075
				c26.539-21.523,65.154-24.036,94.635-3.636c7.003,4.847,8.753,14.453,3.906,21.456c-4.847,7.005-14.453,8.755-21.458,3.906
				c-17.855-12.356-41.214-10.917-57.372,1.988c4.178,2.363,8.093,5.256,11.657,8.653c11.303,10.778,17.732,25.313,18.102,40.926
				c0.202,8.514-6.536,15.582-15.052,15.783c-0.125,0.003-0.248,0.005-0.373,0.005c-8.346,0-15.21-6.665-15.409-15.055
				c-0.176-7.378-3.212-14.245-8.554-19.337c-3.885-3.706-8.655-6.122-13.805-7.112c-25.355,26.013-33.903,64.031-21.697,98.571
				c6.517-0.918,13.172-1.403,19.939-1.403c30.095,0,58.032,9.403,81.042,25.413h173.617C511.545,273.639,512,264.872,512,256
				C512,114.841,397.159,0,256,0z"/>
			<path d="M398.243,399.11c0,8.517-6.906,15.422-15.422,15.422H129.18c-8.517,0-15.422-6.904-15.422-15.422
				c0-32.285,10.818-62.086,29.011-85.985H6.432c1.217,5.314,2.609,10.562,4.152,15.746h63.235c8.517,0,15.422,6.904,15.422,15.422
				c0,8.517-6.904,15.422-15.422,15.422H21.974C61.85,449.343,151.74,512,256,512s194.15-62.657,234.027-152.286h-97.339
				C396.302,372.23,398.243,385.448,398.243,399.11z"/>
			<path d="M379.819,329.168c0.972-0.191,1.974-0.298,3.001-0.298h118.596c1.542-5.183,2.935-10.431,4.151-15.746H369.231
				C373.106,318.216,376.647,323.573,379.819,329.168z"/>
			<path d="M256,287.71c-56.197,0-102.806,41.822-110.334,95.978h220.67C358.806,329.532,312.197,287.71,256,287.71z"/>
		</g>
	</g>
</g>
<g>
</g>
<g>
</g>
<g>
</g>
<g>
</g>
<g>
</g>
<g>
</g>
<g>
</g>
<g>
</g>
<g>
</g>
<g>
</g>
<g>
</g>
<g>
</g>
<g>
</g>
<g>
</g>
<g>
</g>
</svg>
