<?xml version="1.0" encoding="iso-8859-1"?>
<!-- Generator: Adobe Illustrator 19.0.0, SVG Export Plug-In . SVG Version: 6.00 Build 0)  -->
<svg version="1.1" id="Layer_1" xmlns="http://www.w3.org/2000/svg" xmlns:xlink="http://www.w3.org/1999/xlink" x="0px" y="0px"
	 viewBox="0 0 512.003 512.003" style="enable-background:new 0 0 512.003 512.003;" xml:space="preserve">
<g>
	<g>
		<g>
			<path d="M256.002,0c-141.159,0-256,114.841-256,256c0,32.941,6.258,64.446,17.641,93.395h157.152L147.458,130.79
				c-1.056-8.451,4.938-16.159,13.389-17.217l6.827-0.853l-2.617-20.929c-4.457-2.228-7.754-6.567-8.419-11.882
				c-1.056-8.451,4.938-16.159,13.389-17.217l6.823-0.853c0.002,0,0.003,0,0.005,0s0.003,0,0.005,0l104.366-13.051
				c8.462-1.059,16.16,4.937,17.217,13.389c0.665,5.316-1.464,10.334-5.234,13.591l2.617,20.927l6.826-0.853
				c8.46-1.058,16.16,4.936,17.217,13.389L349.9,349.395h144.464c11.38-28.95,17.638-60.455,17.638-93.395
				C512.002,114.841,397.161,0,256.002,0z"/>
			
				<rect x="196.859" y="86.27" transform="matrix(0.9923 -0.1241 0.1241 0.9923 -10.0717 29.3538)" width="67.463" height="18.507"/>
			<path d="M32.239,380.237c29.192,52.366,76.222,93.475,132.824,115.058l-4.455-35.627c-0.507-4.057,0.618-8.152,3.129-11.381
				c2.511-3.228,6.201-5.328,10.26-5.836l12.242-1.531l-7.587-60.683H32.239z"/>
			<path d="M353.755,380.239l4.892,39.123l12.242-1.531c0.517-0.065,1.035-0.102,1.55-0.114c0.241-0.006,0.477,0.012,0.714,0.017
				c0.268,0.006,0.538,0.002,0.805,0.022c0.338,0.025,0.669,0.076,1.002,0.123c0.163,0.023,0.33,0.034,0.492,0.063
				c0.37,0.065,0.733,0.154,1.095,0.244c0.123,0.031,0.248,0.051,0.372,0.085c0.375,0.103,0.739,0.231,1.101,0.362
				c0.108,0.039,0.219,0.068,0.325,0.11c0.372,0.143,0.734,0.31,1.092,0.481c0.093,0.045,0.19,0.08,0.282,0.126
				c0.409,0.205,0.805,0.432,1.192,0.672c0.037,0.023,0.077,0.042,0.114,0.065c2.956,1.865,5.259,4.717,6.405,8.161
				c0.029,0.088,0.048,0.18,0.076,0.268c0.122,0.39,0.239,0.782,0.332,1.184c0.114,0.5,0.204,1.005,0.268,1.517l5.103,40.815
				c35.917-22.892,65.76-54.491,86.554-91.796H353.755V380.239z"/>
			<path d="M363.184,480.48l-3.768-30.128l-166.287,20.793l4.082,32.645c0.059,0.475,0.089,0.945,0.105,1.414
				c6.104,1.437,12.293,2.653,18.555,3.644l-1.154-9.222c-1.056-8.451,4.938-16.16,13.389-17.217
				c8.46-1.063,16.16,4.938,17.217,13.389l2.005,16.042c2.881,0.097,5.771,0.163,8.675,0.163c3.331-0.003,6.644-0.088,9.945-0.214
				l-2.287-18.286c-1.058-8.451,4.938-16.159,13.389-17.217c8.456-1.056,16.16,4.938,17.217,13.389l2.387,19.084
				c6.133-0.982,12.197-2.181,18.178-3.592l-2.224-17.786c-1.058-8.451,4.938-16.159,13.389-17.217
				c8.456-1.055,16.16,4.938,17.217,13.389l1.571,12.563c6.579-2.441,13.027-5.152,19.34-8.106l-0.628-5.015L363.184,480.48z"/>
			<path d="M184.189,175.949l5.242-0.655l-0.783-6.261c-1.056-8.451,4.938-16.16,13.389-17.217
				c8.457-1.061,16.16,4.938,17.217,13.389l0.783,6.263l4.344-0.543l-0.783-6.263c-1.056-8.451,4.938-16.159,13.389-17.217
				c8.45-1.061,16.159,4.938,17.217,13.389l0.783,6.263l4.344-0.543l-0.783-6.263c-1.056-8.451,4.938-16.159,13.391-17.215
				c8.454-1.064,16.159,4.938,17.215,13.391l0.783,6.261l5.45-0.682l-4.212-33.684l-111.198,13.906L184.189,175.949z"/>
			<path d="M196.497,274.377l4.654,37.214l5.242-0.655l-0.783-6.264c-1.056-8.451,4.938-16.159,13.389-17.217
				c8.442-1.064,16.159,4.938,17.217,13.389l0.783,6.263l4.344-0.543l-0.783-6.261c-1.056-8.451,4.938-16.16,13.389-17.217
				c8.454-1.056,16.16,4.936,17.217,13.389l0.783,6.263l4.344-0.543l-0.783-6.264c-1.056-8.451,4.938-16.159,13.391-17.215
				c8.459-1.067,16.159,4.94,17.215,13.391l0.783,6.261l5.45-0.682l-4.654-37.214L196.497,274.377z"/>
			<path d="M197.129,236.851c-1.056-8.451,4.938-16.159,13.389-17.217c8.445-1.063,16.159,4.938,17.217,13.389l0.783,6.263
				l4.344-0.543l-0.783-6.263c-1.056-8.451,4.938-16.159,13.389-17.217c8.448-1.064,16.159,4.938,17.217,13.389l0.783,6.263
				l4.346-0.543l-0.783-6.263c-1.056-8.451,4.938-16.159,13.391-17.215c8.451-1.061,16.159,4.938,17.215,13.391l0.783,6.261
				l5.45-0.682l-4.653-37.214l-55.699,6.964c-0.002,0-0.003,0-0.005,0c-0.002,0-0.003,0-0.003,0l-34.933,4.369
				c-0.003,0-0.008,0.002-0.011,0.002c-0.003,0-0.006,0-0.009,0l-20.537,2.568l4.653,37.214l5.239-0.654L197.129,236.851z"/>
			<polygon points="303.904,398.705 303.901,398.705 213.458,410.013 216.844,437.094 328.042,423.188 324.656,396.109 
				303.906,398.703 			"/>
			<path d="M204.977,342.193l4.653,37.214l5.242-0.655l-0.783-6.263c-1.056-8.451,4.938-16.159,13.389-17.217
				c8.45-1.058,16.159,4.938,17.217,13.389l0.783,6.263l4.344-0.543l-0.783-6.263c-1.056-8.451,4.938-16.16,13.389-17.217
				c8.442-1.056,16.16,4.936,17.217,13.389l0.783,6.263l4.344-0.543l-0.783-6.263c-1.058-8.451,4.937-16.16,13.389-17.217
				c8.436-1.053,16.16,4.936,17.217,13.389l0.783,6.264l5.45-0.682l-4.653-37.214L204.977,342.193z"/>
		</g>
	</g>
</g>
<g>
</g>
<g>
</g>
<g>
</g>
<g>
</g>
<g>
</g>
<g>
</g>
<g>
</g>
<g>
</g>
<g>
</g>
<g>
</g>
<g>
</g>
<g>
</g>
<g>
</g>
<g>
</g>
<g>
</g>
</svg>
