<?xml version="1.0" encoding="iso-8859-1"?>
<!-- Generator: Adobe Illustrator 19.0.0, SVG Export Plug-In . SVG Version: 6.00 Build 0)  -->
<svg version="1.1" id="Layer_1" xmlns="http://www.w3.org/2000/svg" xmlns:xlink="http://www.w3.org/1999/xlink" x="0px" y="0px"
	 viewBox="0 0 512 512" style="enable-background:new 0 0 512 512;" xml:space="preserve">
<g>
	<g>
		<g>
			<path d="M262.431,351.124l-60.41,154.865C219.485,509.909,237.549,512,256,512c7.947,0,15.806-0.384,23.571-1.095l42.99-110.206
				c3.095-7.936,12.037-11.856,19.973-8.763c7.934,3.095,11.858,12.037,8.763,19.973l-36.37,93.236
				c81.484-19.269,148.034-77.582,178.737-154.021L262.431,351.124L262.431,351.124z"/>
			<path d="M36.031,384.845c2.173,3.63,4.431,7.205,6.773,10.723h64.376c8.517,0,15.422,6.904,15.422,15.422
				c0,8.517-6.904,15.422-15.422,15.422H66.816c28.64,31.65,64.876,56.368,105.469,70.935l43.885-112.501H36.031z"/>
			<path d="M256,0C114.841,0,0,114.841,0,256c0,34.488,7.247,67.643,20.261,98h207.941l9.324-23.904
				c2.31-5.919,8.013-9.817,14.367-9.817h9.762v-66.272c0-8.517,6.904-15.422,15.422-15.422h15.835v-66.289
				c-6.809-1.601-11.884-7.7-11.884-14.998s5.075-13.397,11.884-14.998v-8.639c0-25.224,20.522-45.745,45.747-45.745
				c25.225,0,45.745,20.522,45.745,45.745v8.639c6.81,1.601,11.885,7.7,11.885,14.998s-5.075,13.398-11.885,14.998v66.289h82.873
				c8.517,0,15.422,6.904,15.422,15.422v66.272l20.984,0.517C509.104,300.094,512,278.38,512,256C512,114.841,397.159,0,256,0z"/>
			<rect x="323.747" y="172.723" width="29.806" height="65.865"/>
			<path d="M353.559,133.663c0-8.217-6.685-14.902-14.902-14.902c-8.218,0-14.904,6.685-14.904,14.902v8.217h29.805V133.663z"/>
			<path d="M292.499,324.144h159.357v-54.713H292.499V324.144z M412.563,279.823h8.224c8.517,0,15.422,6.904,15.422,15.422
				s-6.904,15.422-15.422,15.422h-8.224c-8.517,0-15.422-6.904-15.422-15.422S404.047,279.823,412.563,279.823z M364.868,279.823
				h8.224c8.517,0,15.422,6.904,15.422,15.422s-6.904,15.422-15.422,15.422h-8.224c-8.517,0-15.422-6.904-15.422-15.422
				S356.35,279.823,364.868,279.823z M317.173,279.823h8.224c8.517,0,15.422,6.904,15.422,15.422s-6.904,15.422-15.422,15.422
				h-8.224c-8.517,0-15.422-6.904-15.422-15.422S308.656,279.823,317.173,279.823z"/>
		</g>
	</g>
</g>
<g>
</g>
<g>
</g>
<g>
</g>
<g>
</g>
<g>
</g>
<g>
</g>
<g>
</g>
<g>
</g>
<g>
</g>
<g>
</g>
<g>
</g>
<g>
</g>
<g>
</g>
<g>
</g>
<g>
</g>
</svg>
