<?xml version="1.0" encoding="iso-8859-1"?>
<!-- Generator: Adobe Illustrator 19.0.0, SVG Export Plug-In . SVG Version: 6.00 Build 0)  -->
<svg version="1.1" id="Layer_1" xmlns="http://www.w3.org/2000/svg" xmlns:xlink="http://www.w3.org/1999/xlink" x="0px" y="0px"
	 viewBox="0 0 512 512" style="enable-background:new 0 0 512 512;" xml:space="preserve">
<g>
	<g>
		<g>
			<path d="M25.173,366.654C66.523,452.563,154.45,512,256,512c78.922,0,149.607-35.906,196.605-92.232
				c-41.344-18.37-106.328-27.68-193.61-27.68C168.925,392.087,90.439,383.539,25.173,366.654z"/>
			<path d="M256,0C114.841,0,0,114.841,0,256c0,25.39,3.734,49.923,10.65,73.096l110.86-76.211
				c4.531-3.114,10.374-3.582,15.341-1.226l79.439,37.654l123.179-89.401c5.273-3.825,12.373-3.926,17.752-0.258L507.776,302.39
				C510.543,287.338,512,271.837,512,256C512,114.841,397.159,0,256,0z"/>
			<path d="M173.639,358.381c27.067,1.902,55.532,2.864,85.357,2.864c95.451,0,166.735,11.168,212.249,33.2
				c11.98-18.56,21.615-38.766,28.508-60.189L348.805,231.248L173.639,358.381z"/>
			<path d="M131.666,283.332l-78.615,58.3c23.094,5.134,47.813,9.265,74.083,12.39l60.709-44.063L131.666,283.332z"/>
		</g>
	</g>
</g>
<g>
</g>
<g>
</g>
<g>
</g>
<g>
</g>
<g>
</g>
<g>
</g>
<g>
</g>
<g>
</g>
<g>
</g>
<g>
</g>
<g>
</g>
<g>
</g>
<g>
</g>
<g>
</g>
<g>
</g>
</svg>
