<?xml version="1.0" encoding="iso-8859-1"?>
<!-- Generator: Adobe Illustrator 19.0.0, SVG Export Plug-In . SVG Version: 6.00 Build 0)  -->
<svg version="1.1" id="Layer_1" xmlns="http://www.w3.org/2000/svg" xmlns:xlink="http://www.w3.org/1999/xlink" x="0px" y="0px"
	 viewBox="0 0 512 512" style="enable-background:new 0 0 512 512;" xml:space="preserve">
<g>
	<g>
		<g>
			<path d="M321.811,358.889c-2.892,2.892-6.815,4.517-10.905,4.517c-4.09,0-8.013-1.625-10.905-4.517l-39.279-39.281
				l-39.279,39.281c-2.892,2.892-6.815,4.517-10.905,4.517c-4.09,0-8.013-1.625-10.905-4.517l-37.606-37.606L61.295,422.014
				C108.286,477.045,178.133,512,256,512c79.903,0,151.364-36.805,198.346-94.342l-95.651-95.653L321.811,358.889z"/>
			<path d="M256,0C114.841,0,0,114.841,0,256c0,21.842,2.756,43.05,7.927,63.303l38.349-38.349c6.022-6.022,15.787-6.022,21.811,0
				l45.324,45.324l135.683-135.683c2.892-2.892,6.815-4.517,10.905-4.517c4.09,0,8.013,1.625,10.905,4.517l131.686,131.686
				l41.325-41.326c6.022-6.022,15.787-6.022,21.811,0l38.349,38.349C509.244,299.05,512,277.842,512,256
				C512,114.841,397.159,0,256,0z M97.362,161.519c-7.836,0-14.19-6.354-14.19-14.19c-0.002-7.837,6.352-14.189,14.19-14.189
				c7.837,0,14.19,6.354,14.19,14.189C111.551,155.167,105.197,161.519,97.362,161.519z M149.347,220.111
				c-7.837,0-14.189-6.354-14.189-14.19s6.352-14.189,14.19-14.189c7.837,0,14.189,6.354,14.189,14.189
				C163.536,213.758,157.182,220.111,149.347,220.111z M197.584,68.475c-7.836,0-14.19-6.354-14.19-14.19s6.354-14.19,14.19-14.19
				c7.837,0,14.189,6.354,14.189,14.19S205.42,68.475,197.584,68.475z M275.149,134.715c-7.836,0-14.189-6.354-14.189-14.189
				c0-7.836,6.352-14.19,14.189-14.19c7.837,0,14.19,6.354,14.19,14.19C289.339,128.361,282.985,134.715,275.149,134.715z
				 M362.2,220.111c-7.836,0-14.19-6.354-14.19-14.19s6.354-14.189,14.19-14.189c7.837,0,14.19,6.354,14.19,14.189
				C376.389,213.758,370.036,220.111,362.2,220.111z M407.78,147.328c-7.836,0-14.19-6.354-14.19-14.19
				c0-7.836,6.354-14.189,14.19-14.189c7.837,0,14.189,6.354,14.189,14.189C421.97,140.974,415.616,147.328,407.78,147.328z"/>
			<path d="M57.181,313.668l-37.097,37.097c-0.444,0.444-0.913,0.844-1.394,1.221c6.459,15.909,14.47,31.025,23.848,45.162
				l49.061-49.061L57.181,313.668z"/>
			<path d="M454.819,313.668l-30.421,30.421l48.207,48.205c8.036-12.726,14.981-26.206,20.705-40.308
				c-0.483-0.378-0.951-0.777-1.394-1.221L454.819,313.668z"/>
			<path d="M249.816,286.894c2.892-2.892,6.815-4.517,10.905-4.517c4.09,0,8.013,1.625,10.905,4.517l39.279,39.281l25.979-25.979
				l-76.886-76.886l-76.162,76.163l26.701,26.703L249.816,286.894z"/>
		</g>
	</g>
</g>
<g>
</g>
<g>
</g>
<g>
</g>
<g>
</g>
<g>
</g>
<g>
</g>
<g>
</g>
<g>
</g>
<g>
</g>
<g>
</g>
<g>
</g>
<g>
</g>
<g>
</g>
<g>
</g>
<g>
</g>
</svg>
