<?xml version="1.0" encoding="iso-8859-1"?>
<!-- Generator: Adobe Illustrator 19.0.0, SVG Export Plug-In . SVG Version: 6.00 Build 0)  -->
<svg version="1.1" id="Layer_1" xmlns="http://www.w3.org/2000/svg" xmlns:xlink="http://www.w3.org/1999/xlink" x="0px" y="0px"
	 viewBox="0 0 512 512" style="enable-background:new 0 0 512 512;" xml:space="preserve">
<g>
	<g>
		<g>
			<path d="M295.595,508.863c5.234-0.819,10.412-1.812,15.543-2.936H200.245C231.145,512.813,263.377,513.911,295.595,508.863z"/>
			<path d="M105.196,462.799c6.018,4.388,12.19,8.474,18.485,12.291h264.883c13.362-8.082,25.964-17.41,37.679-27.882H85.832
				C91.997,452.675,98.453,457.882,105.196,462.799z"/>
			<path d="M508.864,216.408c-10.575-67.543-46.821-126.922-102.058-167.204C362.533,16.92,310.307,0.002,256.545,0.002
				c-13.318,0-26.728,1.038-40.138,3.138C148.863,13.715,89.483,49.96,49.203,105.198C8.922,160.435-7.438,228.052,3.137,295.595
				c3.443,21.99,9.623,43.105,18.277,62.985c1.636-0.592,3.392-0.93,5.233-0.93H256v-48.353l-57.755-41.673h-57.882
				c-7.259,0-13.536-5.063-15.07-12.16l-9.706-44.887h-30.73c-8.516,0-15.418-6.904-15.418-15.418s6.903-15.418,15.418-15.418
				h43.171c7.259,0,13.536,5.063,15.07,12.16l9.706,44.887h24.373l-31.022-75.119c-3.25-7.871,0.495-16.886,8.366-20.138
				c7.874-3.249,16.886,0.497,20.136,8.366l36.873,89.287l53.295,38.453l8.018-51.44l-53.751-23.036
				c-5.546-2.376-9.195-7.769-9.34-13.801l-1.542-64.044c-0.205-8.512,6.53-15.579,15.042-15.784
				c8.52-0.157,15.58,6.53,15.785,15.044l1.303,54.144l32.036,13.73l-6.627-9.175l-5.127-20.702
				c-2.046-8.264,2.994-16.624,11.26-18.672c8.267-2.044,16.626,2.993,18.672,11.262c0,0,14.333,57.876,14.333,57.877
				c0.476,1.927,0.578,4.094,0.268,6.079l-9.023,57.89l42.937-33.396l9.709-51.321c0.012-0.069,0.037-0.134,0.052-0.203
				c0.018-0.094,0.026-0.187,0.048-0.281l12.335-55.41c1.85-8.312,10.085-13.553,18.4-11.699c8.312,1.849,13.55,10.088,11.699,18.4
				l-5.854,26.296l29.546-12.409c7.852-3.3,16.889,0.396,20.186,8.246c3.296,7.851-0.395,16.889-8.246,20.186l-49.408,20.75
				l-9.253,48.907c-0.698,3.69-2.72,6.998-5.683,9.303l-73.399,57.088l-2.367,15.182v21.004h199.981
				c1.363,0,2.678,0.194,3.938,0.527C510.082,314.009,516.502,265.19,508.864,216.408z"/>
			<path d="M56.407,416.371H455.47c2.505-3.124,4.952-6.309,7.328-9.566c4.35-5.964,8.401-12.08,12.19-18.318H36.865
				C42.734,398.198,49.263,407.509,56.407,416.371z"/>
		</g>
	</g>
</g>
<g>
</g>
<g>
</g>
<g>
</g>
<g>
</g>
<g>
</g>
<g>
</g>
<g>
</g>
<g>
</g>
<g>
</g>
<g>
</g>
<g>
</g>
<g>
</g>
<g>
</g>
<g>
</g>
<g>
</g>
</svg>
