<?xml version="1.0" encoding="iso-8859-1"?>
<!-- Generator: Adobe Illustrator 19.0.0, SVG Export Plug-In . SVG Version: 6.00 Build 0)  -->
<svg version="1.1" id="Layer_1" xmlns="http://www.w3.org/2000/svg" xmlns:xlink="http://www.w3.org/1999/xlink" x="0px" y="0px"
	 viewBox="0 0 512.002 512.002" style="enable-background:new 0 0 512.002 512.002;" xml:space="preserve">
<g>
	<g>
		<g>
			<path d="M225.944,278.517h285.335c0.323-3.751,0.563-7.525,0.722-11.319H2.854c-0.976,0-1.928-0.1-2.854-0.275
				c0.157,3.888,0.401,7.752,0.732,11.594h101.996c8.525,0,15.436,6.911,15.436,15.436c0,8.525-6.911,15.436-15.436,15.436H5.292
				c15.753,74.607,64.057,137.347,129.307,172.603l47.285-62.211h-5.924c-8.525,0-15.436-6.911-15.436-15.436v-38.962
				c0-8.525,6.911-15.436,15.436-15.436h160.092c8.525,0,15.436,6.911,15.436,15.436v38.962c0,8.525-6.911,15.436-15.436,15.436
				h-5.924l47.285,62.211c65.251-35.256,113.554-97.996,129.307-172.603H225.944c-8.525,0-15.436-6.911-15.436-15.436
				C210.508,285.428,217.419,278.517,225.944,278.517z"/>
			<path d="M511.463,236.326C501.193,104.378,390.544,0.154,256.006,0.154C121.402,0.154,10.708,104.48,0.531,236.519
				c0.759-0.116,1.531-0.193,2.323-0.193H511.463z M174.47,90.691c28.429,0,51.473,23.045,51.473,51.473
				s-23.046,51.473-51.473,51.473c-28.429,0-51.473-23.046-51.473-51.473S146.042,90.691,174.47,90.691z"/>
			<path d="M287.246,394.336c2.979-3.539,7.488-5.426,12.114-5.426h15.456c3.203,0,5.801-2.596,5.801-5.801
				c0-3.203-2.596-5.801-5.801-5.801h-117.62c-3.203,0-5.801,2.596-5.801,5.801c0,3.203,2.596,5.801,5.801,5.801h15.456
				c4.626,0,9.135,1.888,12.114,5.426c4.796,5.698,4.824,13.701,0.529,19.351l-54.145,83.71
				c26.552,9.348,55.105,14.451,84.855,14.451c29.75,0,58.302-5.103,84.855-14.451l-54.145-83.71
				C282.422,408.037,282.45,400.033,287.246,394.336z"/>
		</g>
	</g>
</g>
<g>
</g>
<g>
</g>
<g>
</g>
<g>
</g>
<g>
</g>
<g>
</g>
<g>
</g>
<g>
</g>
<g>
</g>
<g>
</g>
<g>
</g>
<g>
</g>
<g>
</g>
<g>
</g>
<g>
</g>
</svg>
