<?xml version="1.0" encoding="iso-8859-1"?>
<!-- Generator: Adobe Illustrator 19.0.0, SVG Export Plug-In . SVG Version: 6.00 Build 0)  -->
<svg version="1.1" id="Layer_1" xmlns="http://www.w3.org/2000/svg" xmlns:xlink="http://www.w3.org/1999/xlink" x="0px" y="0px"
	 viewBox="0 0 512 512" style="enable-background:new 0 0 512 512;" xml:space="preserve">
<g>
	<g>
		<g>
			<path d="M253.227,497.78c-16.167,3.917-32.205,6.96-48.088,9.139C221.582,510.247,238.59,512,256,512
				c88.206,0,166.136-44.842,212.19-112.925c-17.34,11.677-36.751,23.814-57.973,35.638
				C357.458,464.108,304.638,485.325,253.227,497.78z"/>
			<path d="M300.368,331.29H11.304c2.184,7.083,4.676,14.031,7.444,20.838h210.458c8.517,0,15.422,6.906,15.422,15.422
				s-6.904,15.422-15.422,15.422H33.767c23.254,40.541,57.285,74.135,98.151,96.878c89.753,3.273,174.109-26.473,238.02-58.681
				h-32.265c-8.516,0-15.422-6.906-15.422-15.422s6.906-15.422,15.422-15.422h59.839c5.936,0,11.081,3.359,13.659,8.275
				c8.81-5.202,17.269-10.434,25.339-15.63h-122.55c-8.516,0-15.422-6.906-15.422-15.422s6.906-15.422,15.422-15.422h139.346
				c6.514,0,12.074,4.047,14.333,9.757c11.199-7.973,21.276-15.568,30.066-22.463H313.958
				C308.079,339.421,302.97,336.128,300.368,331.29z"/>
			<path d="M256,0C114.841,0,0,114.841,0,256c0,15.156,1.332,30.008,3.871,44.447h294.665v-17.989
				c0-8.516,6.906-15.422,15.422-15.422h20.643V134.169c0-8.516,6.906-15.422,15.422-15.422h41.125
				c8.516,0,15.422,6.906,15.422,15.422v132.867h11.81v-95.855c0-8.516,6.906-15.422,15.422-15.422h41.123
				c8.516,0,15.422,6.906,15.422,15.422v95.855h21.401C511.903,263.375,512,259.698,512,256C512,114.841,397.159,0,256,0z
				 M194.307,147.521c-3.399,23.066-24.854,39.008-47.92,35.609c-23.066-3.401-39.008-24.854-35.607-47.92
				c3.399-23.066,24.854-39.008,47.92-35.607C181.766,103.003,197.708,124.456,194.307,147.521z"/>
			<rect x="329.376" y="297.885" width="174.034" height="10.7"/>
			<rect x="365.448" y="149.59" width="10.282" height="111.036"/>
			<rect x="449.218" y="186.602" width="10.28" height="74.024"/>
		</g>
	</g>
</g>
<g>
</g>
<g>
</g>
<g>
</g>
<g>
</g>
<g>
</g>
<g>
</g>
<g>
</g>
<g>
</g>
<g>
</g>
<g>
</g>
<g>
</g>
<g>
</g>
<g>
</g>
<g>
</g>
<g>
</g>
</svg>
