<?xml version="1.0" encoding="iso-8859-1"?>
<!-- Generator: Adobe Illustrator 19.0.0, SVG Export Plug-In . SVG Version: 6.00 Build 0)  -->
<svg version="1.1" id="Layer_1" xmlns="http://www.w3.org/2000/svg" xmlns:xlink="http://www.w3.org/1999/xlink" x="0px" y="0px"
	 viewBox="0 0 512 512" style="enable-background:new 0 0 512 512;" xml:space="preserve">
<g>
	<g>
		<g>
			<path d="M256,512c88.328,0,166.349-44.967,212.38-113.209H43.62C89.651,467.033,167.672,512,256,512z"/>
			<path d="M256,0C114.841,0,0,114.841,0,256c0,32.156,5.976,62.937,16.848,91.315l93.505-93.505c6.022-6.022,15.787-6.022,21.811,0
				l52.899,52.899l108.863-108.863c6.022-6.021,15.787-6.021,21.809,0l88.434,88.434l25.514-25.514
				c2.892-2.892,6.815-4.517,10.905-4.517s8.013,1.625,10.905,4.517l53.751,53.751C509.657,295.717,512,276.128,512,256
				C512,114.841,397.159,0,256,0z M179.783,174.993c-28.402,0-51.425-23.025-51.425-51.425c0-28.402,23.025-51.425,51.425-51.425
				s51.425,23.025,51.425,51.425C231.208,151.97,208.184,174.993,179.783,174.993z"/>
			<polygon points="304.831,230.56 167.446,367.948 322.503,367.948 382.359,308.09 			"/>
			<path d="M440.588,293.481l-74.465,74.467H486.19c3.222-6.597,6.161-13.354,8.817-20.252c-0.526-0.404-1.038-0.833-1.519-1.315
				L440.588,293.481z"/>
			<path d="M124.993,366.782l38.26-38.263l-41.995-41.995l-81.422,81.423h84.102C124.266,367.545,124.618,367.156,124.993,366.782z"
				/>
		</g>
	</g>
</g>
<g>
</g>
<g>
</g>
<g>
</g>
<g>
</g>
<g>
</g>
<g>
</g>
<g>
</g>
<g>
</g>
<g>
</g>
<g>
</g>
<g>
</g>
<g>
</g>
<g>
</g>
<g>
</g>
<g>
</g>
</svg>
