<?xml version="1.0" encoding="iso-8859-1"?>
<!-- Generator: Adobe Illustrator 19.0.0, SVG Export Plug-In . SVG Version: 6.00 Build 0)  -->
<svg version="1.1" id="Layer_1" xmlns="http://www.w3.org/2000/svg" xmlns:xlink="http://www.w3.org/1999/xlink" x="0px" y="0px"
	 viewBox="0 0 512 512" style="enable-background:new 0 0 512 512;" xml:space="preserve">
<g>
	<g>
		<g>
			<path d="M256,0C114.841,0,0,114.841,0,256c0,38.321,8.48,74.695,23.637,107.367h50.4v-54.104c0-8.517,6.906-15.422,15.422-15.422
				h23.902v-49.476c0-8.517,6.906-15.422,15.422-15.422h30.84v-49.477c0-8.517,6.906-15.422,15.422-15.422h14.766v-42.046
				c0-8.517,6.906-15.422,15.422-15.422h94.714c8.516,0,15.422,6.904,15.422,15.422v42.046h21.589
				c8.516,0,15.422,6.904,15.422,15.422v49.477h30.84c8.516,0,15.422,6.904,15.422,15.422v49.476h23.902
				c8.516,0,15.422,6.904,15.422,15.422v54.104h50.4C503.52,330.695,512,294.321,512,256C512,114.841,397.159,0,256,0z"/>
			<path d="M256,512c90.289,0,169.808-46.987,215.396-117.789H40.604C86.192,465.013,165.711,512,256,512z M371.653,421.012h23.131
				c8.516,0,15.422,6.904,15.422,15.422c0,8.517-6.904,15.422-15.422,15.422h-23.131c-8.516,0-15.422-6.904-15.422-15.422
				C356.232,427.916,363.138,421.012,371.653,421.012z M252.589,413.301h30.61c8.516,0,15.422,6.904,15.422,15.422
				s-6.906,15.422-15.422,15.422h-30.61c-8.516,0-15.422-6.904-15.422-15.422S244.073,413.301,252.589,413.301z M221.978,468.819
				h30.611c8.516,0,15.422,6.904,15.422,15.422s-6.904,15.422-15.422,15.422h-30.611c-8.516,0-15.422-6.904-15.422-15.422
				S213.462,468.819,221.978,468.819z M113.476,421.012h30.61c8.516,0,15.422,6.904,15.422,15.422
				c0,8.517-6.906,15.422-15.422,15.422h-30.61c-8.516,0-15.422-6.904-15.422-15.422C98.054,427.916,104.96,421.012,113.476,421.012
				z"/>
			<polygon points="104.88,324.685 104.88,363.367 407.12,363.367 407.12,324.685 383.218,324.685 128.782,324.685 			"/>
			<polygon points="144.204,259.788 144.204,293.842 367.796,293.842 367.796,259.788 336.956,259.788 175.044,259.788 			"/>
			<rect x="190.458" y="194.884" width="131.069" height="34.051"/>
			<rect x="220.653" y="137.423" width="63.877" height="26.624"/>
		</g>
	</g>
</g>
<g>
</g>
<g>
</g>
<g>
</g>
<g>
</g>
<g>
</g>
<g>
</g>
<g>
</g>
<g>
</g>
<g>
</g>
<g>
</g>
<g>
</g>
<g>
</g>
<g>
</g>
<g>
</g>
<g>
</g>
</svg>
