<?xml version="1.0" encoding="iso-8859-1"?>
<!-- Generator: Adobe Illustrator 19.0.0, SVG Export Plug-In . SVG Version: 6.00 Build 0)  -->
<svg version="1.1" id="Layer_1" xmlns="http://www.w3.org/2000/svg" xmlns:xlink="http://www.w3.org/1999/xlink" x="0px" y="0px"
	 viewBox="0 0 512 512" style="enable-background:new 0 0 512 512;" xml:space="preserve">
<g>
	<g>
		<g>
			<path d="M159.186,273.801h43.48v-73.366c-16.461-2.864-31.389-10.221-43.48-20.767V273.801z"/>
			<path d="M233.509,273.8h43.48v-94.132c-12.091,10.547-27.019,17.903-43.48,20.768V273.8z"/>
			<path d="M45.306,401.234h74.666c8.516,0,15.422,6.904,15.422,15.422s-6.906,15.422-15.422,15.422H70.343
				C117.023,481.272,182.989,512,256,512c73.011,0,138.977-30.728,185.657-79.923h-50.329c-8.516,0-15.422-6.904-15.422-15.422
				s6.906-15.422,15.422-15.422h75.364c9.036-13.068,16.888-27.011,23.402-41.677H21.903
				C28.418,374.224,36.27,388.167,45.306,401.234z M220.76,401.234h69.78c8.516,0,15.422,6.904,15.422,15.422
				s-6.904,15.422-15.422,15.422h-69.78c-8.516,0-15.422-6.904-15.422-15.422S212.244,401.234,220.76,401.234z"/>
			<path d="M84.861,200.436V273.8h43.481v-94.132C116.25,190.214,101.322,197.57,84.861,200.436z"/>
			<path d="M307.832,273.8h29.236v-53.89c-10.76-2.242-20.68-6.786-29.236-13.084V273.8z"/>
			<path d="M256,0c-49.528,0-95.807,14.153-135.031,38.605c8.974,6.335,16.669,14.242,22.753,23.248
				c16.148-23.85,43.457-39.557,74.365-39.557c41.077,0,75.77,27.75,86.385,65.479c13.059-10.791,29.796-17.282,48.018-17.282
				c41.632,0,75.503,33.871,75.503,75.501c0,36.347-25.821,66.774-60.081,73.913v53.89h48.472v-38.796
				c0-8.517,6.906-15.422,15.422-15.422c8.516,0,15.422,6.904,15.422,15.422v38.796h23.944v-38.796
				c0-8.517,6.906-15.422,15.422-15.422s15.422,6.904,15.422,15.422v38.796h9.356C511.776,267.916,512,261.984,512,256
				C512,114.841,397.159,0,256,0z"/>
			<path d="M10.536,328.712h490.928c2.336-7.873,4.303-15.903,5.88-24.069H4.656C6.233,312.81,8.2,320.839,10.536,328.712z"/>
			<path d="M54.016,200.429c-15.724-2.767-30.473-9.696-42.633-19.983C3.988,204.337,0,229.711,0,256
				c0,5.984,0.224,11.916,0.629,17.8h53.387V200.429z"/>
			<path d="M21.911,146.844c11.074,15.092,28.84,24.101,47.527,24.101c32.48,0,58.903-26.424,58.903-58.902
				c0-24.406-15.341-46.572-38.176-55.157c-1.431-0.538-2.731-1.274-3.891-2.153l-67.478,88.952
				C19.953,144.563,21.007,145.613,21.911,146.844z"/>
			<path d="M218.087,53.14c-32.48,0-58.902,26.424-58.902,58.903s26.424,58.902,58.902,58.902s58.902-26.424,58.902-58.902
				C276.989,79.565,250.567,53.14,218.087,53.14z"/>
			<path d="M397.15,145.997c0-24.625-20.034-44.658-44.66-44.658s-44.658,20.033-44.658,44.658
				c0,24.625,20.033,44.658,44.658,44.658C377.116,190.655,397.15,170.622,397.15,145.997z"/>
		</g>
	</g>
</g>
<g>
</g>
<g>
</g>
<g>
</g>
<g>
</g>
<g>
</g>
<g>
</g>
<g>
</g>
<g>
</g>
<g>
</g>
<g>
</g>
<g>
</g>
<g>
</g>
<g>
</g>
<g>
</g>
<g>
</g>
</svg>
