<?xml version="1.0" encoding="iso-8859-1"?>
<!-- Generator: Adobe Illustrator 19.0.0, SVG Export Plug-In . SVG Version: 6.00 Build 0)  -->
<svg version="1.1" id="Layer_1" xmlns="http://www.w3.org/2000/svg" xmlns:xlink="http://www.w3.org/1999/xlink" x="0px" y="0px"
	 viewBox="0 0 512 512" style="enable-background:new 0 0 512 512;" xml:space="preserve">
<g>
	<g>
		<g>
			<path d="M279.826,295.725H232.17c-0.018,0.114-0.025,0.227-0.046,0.341l-38.682,208.43c15.22,3.837,30.978,6.301,47.133,7.265
				v-29.81c0-8.517,6.904-15.422,15.422-15.422c8.516,0,15.422,6.904,15.422,15.422v29.81c16.16-0.965,31.918-3.43,47.138-7.265
				l-38.684-208.43C279.851,295.951,279.845,295.839,279.826,295.725z M271.422,423.905c0,8.517-6.906,15.422-15.422,15.422
				c-8.517,0-15.422-6.904-15.422-15.422v-17.8c0-8.517,6.904-15.422,15.422-15.422c8.516,0,15.422,6.904,15.422,15.422V423.905z
				 M271.422,348.909c0,8.517-6.906,15.422-15.422,15.422c-8.517,0-15.422-6.904-15.422-15.422v-16.62
				c0-8.517,6.904-15.422,15.422-15.422c8.516,0,15.422,6.904,15.422,15.422V348.909z"/>
			<path d="M380.3,117.825c29.731-3.786,59.677-4.6,89.336-2.467c-25.959-39.234-62.422-70.93-105.355-91.054
				c-4.148,24.241-25.248,42.696-50.673,42.696c-28.402,0-51.425-23.025-51.425-51.425c0-5.288,0.823-10.377,2.306-15.178
				c-2.821-0.094-5.647-0.157-8.49-0.157c-64.754,0-123.96,24.18-169.093,63.968c78.041,3.687,153.436,27.518,219.293,69.504
				C330.311,126.373,355.097,121.036,380.3,117.825z"/>
			<path d="M348.175,495.062c83.917-32.5,146.577-108.004,160.777-199.338H311.18L348.175,495.062z"/>
			<path d="M3.047,295.725c14.2,91.333,76.86,166.839,160.777,199.339l36.995-199.339H3.047z"/>
			<path d="M488.012,148.119c-34.299-4.199-69.205-4.108-103.813,0.302c-73.548,9.369-143.289,38.092-201.683,83.064
				c-2.804,2.159-6.113,3.205-9.398,3.205c-4.622,0-9.191-2.068-12.229-6.013c-5.197-6.747-3.939-16.43,2.808-21.627
				c32.083-24.709,67.356-44.839,104.724-59.967C206.59,112.64,136.966,94.53,65.528,94.53c-2.619,0-5.257,0.028-7.894,0.077
				C21.627,138.713,0,194.995,0,256.239c0,2.893,0.066,5.772,0.162,8.642h511.676c0.096-2.87,0.162-5.749,0.162-8.642
				C512,217.622,503.388,180.984,488.012,148.119z"/>
		</g>
	</g>
</g>
<g>
</g>
<g>
</g>
<g>
</g>
<g>
</g>
<g>
</g>
<g>
</g>
<g>
</g>
<g>
</g>
<g>
</g>
<g>
</g>
<g>
</g>
<g>
</g>
<g>
</g>
<g>
</g>
<g>
</g>
</svg>
