<?xml version="1.0" encoding="iso-8859-1"?>
<!-- Generator: Adobe Illustrator 19.0.0, SVG Export Plug-In . SVG Version: 6.00 Build 0)  -->
<svg version="1.1" id="Layer_1" xmlns="http://www.w3.org/2000/svg" xmlns:xlink="http://www.w3.org/1999/xlink" x="0px" y="0px"
	 viewBox="0 0 511.999 511.999" style="enable-background:new 0 0 511.999 511.999;" xml:space="preserve">
<g>
	<g>
		<g>
			<path d="M98.419,239.387c-46.76-0.385-83.584,3.013-98.128,4.611c-2.677,56.103,13.268,109.664,42.837,153.959
				c3.411-3.113,8.059-7.169,14-11.941c-0.086-0.648-0.147-1.303-0.148-1.972C56.863,345.521,64.374,290.926,98.419,239.387z"/>
			<path d="M461.45,103.334C420.67,48.452,360.958,12.737,293.315,2.766c-12.597-1.857-25.12-2.759-37.491-2.759
				c-122.768,0-230.827,88.714-252.102,212.583c7.121-0.72,16.691-1.565,28.197-2.308v-21.611c0-8.515,6.905-15.42,15.42-15.42
				c8.515,0,15.42,6.905,15.42,15.42v20.148c18.799-0.577,40.322-0.668,63.553,0.247c102.535,4.032,185.171,25.027,245.683,62.387
				c7.015-0.572,14.073-1.045,21.17-1.423v-31.781c0-8.515,6.905-15.42,15.42-15.42s15.42,6.905,15.42,15.42v30.757
				c3.294-0.045,6.595-0.074,9.904-0.079v-30.679c0-8.515,6.905-15.42,15.42-15.42s15.42,6.905,15.42,15.42v31.214
				c15.422,0.552,30.987,1.513,46.691,2.921C515.421,211.88,498.016,152.543,461.45,103.334z M396.398,135.446
				c-3.399,23.064-24.851,39.004-47.915,35.604c-23.064-3.4-39.004-24.85-35.605-47.914s24.851-39.004,47.915-35.605
				C383.857,90.93,399.797,112.382,396.398,135.446z"/>
			<path d="M170.769,353.244c-62.531,28.44-98.375,59.501-108.921,69.413c38.777,45.234,93.38,77.24,156.813,86.589
				c15.695,2.313,31.271,3.13,46.588,2.583c9.776-89.516-51.461-158.041-64.196-171.211
				C190.134,344.786,180.023,349.034,170.769,353.244z"/>
			<path d="M126.838,252.421c-26.248,37.855-35.715,78.178-38.242,110.804c4.623-3.038,9.57-6.16,14.817-9.335
				C104.433,317.47,112.286,283.448,126.838,252.421z"/>
			<path d="M464.751,307.339c0,8.515-6.905,15.42-15.42,15.42s-15.42-6.905-15.42-15.42v-7.536
				c-3.325,0.009-6.628,0.035-9.904,0.085v7.451c0,8.515-6.905,15.42-15.42,15.42s-15.42-6.905-15.42-15.42v-6.338
				c-37.55,2.13-71.635,6.942-102.19,13.366c39.63,26.18,93.43,73.42,117.561,147.044c50.194-37.278,86.833-92.788,99.058-158.414
				c-14.665-1.291-28.947-2.173-42.844-2.678V307.339z"/>
			<path d="M319.019,278.583c-47.682-20.8-101.999-31.163-152.431-35.846c-0.362,1.189-0.857,2.356-1.528,3.47
				c-16.287,27.03-26.191,57.18-29.593,89.841c7.123-3.641,14.623-7.281,22.535-10.879c46.992-21.371,98.426-36.891,152.873-46.125
				C312.675,278.739,319.019,278.583,319.019,278.583z"/>
			<path d="M248.381,324.903c-5.332,1.522-10.547,3.079-15.605,4.674c23.652,27.426,70.588,93.468,63.744,179.193
				c30.244-4.87,59.003-15.121,85.092-29.861C356.404,390.861,282.27,342.779,248.381,324.903z"/>
		</g>
	</g>
</g>
<g>
</g>
<g>
</g>
<g>
</g>
<g>
</g>
<g>
</g>
<g>
</g>
<g>
</g>
<g>
</g>
<g>
</g>
<g>
</g>
<g>
</g>
<g>
</g>
<g>
</g>
<g>
</g>
<g>
</g>
</svg>
