<?xml version="1.0" encoding="iso-8859-1"?>
<!-- Generator: Adobe Illustrator 19.0.0, SVG Export Plug-In . SVG Version: 6.00 Build 0)  -->
<svg version="1.1" id="Layer_1" xmlns="http://www.w3.org/2000/svg" xmlns:xlink="http://www.w3.org/1999/xlink" x="0px" y="0px"
	 viewBox="0 0 511.998 511.998" style="enable-background:new 0 0 511.998 511.998;" xml:space="preserve">
<g>
	<g>
		<g>
			<path d="M345.851,223.131l147.493-63.19c-8.775-21.64-20.426-41.814-34.48-60.052L342.341,217.983
				C339.894,220.463,342.65,224.504,345.851,223.131z"/>
			<path d="M272.367,181.781l66.114-168.303c-22.095-7.54-45.539-12.137-69.863-13.323V181.07
				C268.618,183.217,271.584,183.778,272.367,181.781z"/>
			<path d="M311.254,195.407L438.562,76.574c-20.608-20.983-44.781-38.451-71.544-51.383l-60.913,166.807
				C304.959,195.134,308.812,197.687,311.254,195.407z"/>
			<path d="M503.207,189.29l-157.056,68.466c2.563,7.648,4.182,15.721,4.708,24.092h159.827c0.867-8.553,1.312-17.228,1.312-26.004
				C511.998,232.83,508.928,210.522,503.207,189.29z"/>
			<path d="M233.535,178.865l4.238-178.366c-30.348,2.145-59.25,9.602-85.783,21.447l74.061,158.487
				C227.808,184.193,233.437,183.013,233.535,178.865z"/>
			<path d="M192.901,192.975l-68.327-156.74C104.702,48.172,86.57,62.719,70.67,79.413l117.075,117.075
				C190.225,198.968,194.301,196.189,192.901,192.975z"/>
			<path d="M259.422,452.157c1.261-6.633-6.206-16.077-20.488-25.911c-33.403-23-50.494-48.623-50.796-76.157
				c-0.157-14.376,4.415-27.02,10.411-37.398H6.371c19.8,86.986,84.022,157.272,167.453,185.623
				C208.955,489.508,256.128,469.485,259.422,452.157z"/>
			<path d="M331.407,419.435c-41.699-24.972-65.895-52.813-71.919-82.747c-1.81-9-1.747-17.076-0.757-23.996h-21.398
				c-7.427,7.298-18.599,20.994-18.353,37.208c0.256,16.871,12.854,34.011,37.442,50.942c25.913,17.841,37.114,37.052,33.294,57.094
				c-3.865,20.284-22.634,37.59-57.292,52.812c7.765,0.713,15.625,1.095,23.574,1.095c15.513-0.002,30.705-1.39,45.463-4.045
				c19.397-8.741,57.72-32.452,59.068-53.683C361.401,440.389,345.174,427.68,331.407,419.435z"/>
			<path d="M290.191,312.691c-1.251,4.639-1.985,11.011-0.308,18.659c4.499,20.532,24.337,41.841,57.37,61.624
				c30.748,18.414,45.57,39.658,44.054,63.144c-0.463,7.17-2.491,13.969-5.612,20.355c59.805-35.291,104.09-94.185,119.931-163.783
				H290.191V312.691z"/>
			<path d="M168.357,222.3L50.707,103.07c-15.121,20.267-27.303,42.845-35.94,67.089l150.198,57.338
				C168.153,228.714,170.754,224.73,168.357,222.3z"/>
			<path d="M165.131,258.783L6.172,199.912C2.142,217.922,0,236.636,0,255.842c0,8.778,0.446,17.453,1.312,26.006h159.829
				C161.579,274.897,162.79,266.316,165.131,258.783z"/>
			<path d="M192.065,281.848h127.872c-3.052-32.598-30.555-58.2-63.937-58.2S195.115,249.249,192.065,281.848z"/>
		</g>
	</g>
</g>
<g>
</g>
<g>
</g>
<g>
</g>
<g>
</g>
<g>
</g>
<g>
</g>
<g>
</g>
<g>
</g>
<g>
</g>
<g>
</g>
<g>
</g>
<g>
</g>
<g>
</g>
<g>
</g>
<g>
</g>
</svg>
