<?xml version="1.0" encoding="iso-8859-1"?>
<!-- Generator: Adobe Illustrator 19.0.0, SVG Export Plug-In . SVG Version: 6.00 Build 0)  -->
<svg version="1.1" id="Layer_1" xmlns="http://www.w3.org/2000/svg" xmlns:xlink="http://www.w3.org/1999/xlink" x="0px" y="0px"
	 viewBox="0 0 512 512" style="enable-background:new 0 0 512 512;" xml:space="preserve">
<g>
	<g>
		<g>
			<rect x="90.872" y="321.45" width="330.255" height="34.327"/>
			<path d="M223.769,386.625l-36.913,116.118c17.246,4.844,35.225,7.913,53.723,9.017V386.623h-16.81V386.625z"/>
			<path d="M201.188,290.611h9.753v-32.753c0-21.782,15.551-40.423,36.98-44.328c5.362-0.978,10.8-0.978,16.16,0
				c21.425,3.905,36.978,22.548,36.978,44.328v32.753h9.753v-94.362H201.188V290.611z"/>
			<path d="M256,0.239c-141.159,0-256,114.841-256,256c0,45.497,11.946,88.252,32.842,125.318l27.187-17.274V202.767
				c0-8.517,6.904-15.422,15.422-15.422s15.422,6.904,15.422,15.422v87.844h26.13V169.589c0-8.517,6.904-15.422,15.422-15.422
				c2.187,0,4.266,0.461,6.15,1.283c3.772-18.057,18.599-32.52,37.415-35.214c1.45-0.208,2.921-0.208,4.371,0
				c7.186,1.029,13.787,3.781,19.417,7.788c7.083-18.406,21.976-33.211,40.8-39.975V70.943c0-8.517,6.904-15.422,15.422-15.422
				c8.517,0,15.422,6.904,15.422,15.422v17.109c18.824,6.764,33.716,21.569,40.8,39.975c5.63-4.007,12.231-6.759,19.417-7.788
				c1.45-0.208,2.921-0.208,4.37,0c18.818,2.693,33.642,17.155,37.415,35.214c1.885-0.82,3.963-1.283,6.15-1.283
				c8.517,0,15.422,6.904,15.422,15.422v121.022h26.13v-87.843c0-8.517,6.904-15.422,15.422-15.422
				c8.517,0,15.422,6.904,15.422,15.422v161.514l27.187,17.274C500.054,344.491,512,301.736,512,256.239
				C512,115.08,397.159,0.239,256,0.239z"/>
			<rect x="341.652" y="196.241" width="22.499" height="94.365"/>
			<path d="M271.422,386.625v125.136c18.5-1.104,36.478-4.173,53.723-9.017l-36.913-116.119H271.422z"/>
			<path d="M320.597,386.625l33.692,105.981c43.343-18.09,80.68-47.767,108.134-85.14l-32.799-20.841H320.597z"/>
			<rect x="147.848" y="196.241" width="22.499" height="94.365"/>
			<path d="M82.376,386.625l-32.799,20.841c27.454,37.373,64.791,67.05,108.134,85.14l33.692-105.981H82.376z"/>
			<path d="M256,115.656c-17.189,3.522-29.89,18.884-29.89,36.613v13.136h59.781v-13.136C285.89,134.54,273.189,119.177,256,115.656
				z"/>
			<path d="M253.451,243.874c-6.761,1.232-11.667,7.114-11.667,13.984v32.753h28.431v-32.753c0-6.87-4.906-12.752-11.667-13.984
				C256.856,243.565,255.141,243.565,253.451,243.874z"/>
			<path d="M187.878,164.477c-0.002-6.087-4.042-11.421-9.702-13.209c-5.66,1.789-9.7,7.123-9.7,13.209v0.928h19.402V164.477z"/>
			<path d="M333.824,151.268c-5.66,1.789-9.702,7.123-9.702,13.209v0.928h19.402v-0.928
				C343.524,158.39,339.484,153.056,333.824,151.268z"/>
		</g>
	</g>
</g>
<g>
</g>
<g>
</g>
<g>
</g>
<g>
</g>
<g>
</g>
<g>
</g>
<g>
</g>
<g>
</g>
<g>
</g>
<g>
</g>
<g>
</g>
<g>
</g>
<g>
</g>
<g>
</g>
<g>
</g>
</svg>
