<?xml version="1.0" encoding="iso-8859-1"?>
<!-- Generator: Adobe Illustrator 19.0.0, SVG Export Plug-In . SVG Version: 6.00 Build 0)  -->
<svg version="1.1" id="Layer_1" xmlns="http://www.w3.org/2000/svg" xmlns:xlink="http://www.w3.org/1999/xlink" x="0px" y="0px"
	 viewBox="0 0 512 512" style="enable-background:new 0 0 512 512;" xml:space="preserve">
<g>
	<g>
		<g>
			<path d="M256,0C114.841,0,0,114.841,0,256c0,6.803,0.273,13.542,0.797,20.213c0.079-0.002,0.154-0.012,0.231-0.012h176.15v-60.76
				c0-3.962,1.524-7.773,4.258-10.639l21.621-22.687l-13.568,1.34c-0.517,0.051-1.029,0.076-1.534,0.076
				c-7.836,0-14.543-5.945-15.328-13.907c-0.837-8.476,5.354-16.026,13.83-16.864l49.208-4.861l10.154-10.655l-5.012-50.747
				c-0.837-8.476,5.354-16.026,13.83-16.864c8.524-0.836,16.026,5.358,16.864,13.832l4.778,48.37l10.498,11.016l50.986-5.037
				c8.519-0.828,16.026,5.356,16.864,13.832c0.837,8.476-5.354,16.026-13.83,16.864l-27.022,2.669l32.043,33.622
				c2.733,2.867,4.258,6.678,4.258,10.639v60.76h62.506l15.742-20.776c2.916-3.848,7.466-6.107,12.293-6.107
				c4.827,0,9.376,2.261,12.293,6.109l15.742,20.776h42.558C511.727,269.534,512,262.798,512,256C512,114.841,397.159,0,256,0z"/>
			<path d="M387.262,309.61l1.945-2.568h-39.134v57.421c0,0.321-0.029,0.634-0.048,0.95c11.427,3.197,22.799,6.631,34.108,10.313
				v-56.801C384.133,315.562,385.232,312.292,387.262,309.61z"/>
			<path d="M92.806,365.206c-22.028,0.671-44.166,2.224-66.063,4.617C68.714,454.018,155.707,512,256,512
				c73.686,0,140.188-31.306,186.939-81.3C332.162,383.534,214.474,361.5,92.806,365.206z"/>
			<path d="M177.178,335.889v-28.845H5.117c2.306,11.346,5.373,22.415,9.13,33.167c25.668-3.083,51.718-5.046,77.619-5.836
				C120.53,333.503,148.978,334.015,177.178,335.889z"/>
			<path d="M493.963,309.612c2.029,2.68,3.129,5.95,3.129,9.313v23.16c4.061-11.336,7.352-23.035,9.791-35.041h-14.867
				L493.963,309.612z"/>
			<polygon points="220.32,208.706 252.877,208.706 249.821,177.753 			"/>
			<polygon points="306.93,208.706 281.204,181.712 283.87,208.706 			"/>
			<path d="M208.022,338.504c13.455,1.38,26.851,3.075,40.183,5.085V318.2c0-8.517,6.906-15.422,15.422-15.422
				c8.516,0,15.422,6.904,15.422,15.422v25.5c0,1.738-0.301,3.404-0.831,4.963c13.745,2.582,27.417,5.509,41.012,8.766V239.55
				h-33.061c-1.377,6.369-6.719,11.409-13.553,12.083c-0.517,0.051-1.029,0.076-1.534,0.076c-7.25,0-13.522-5.094-15.044-12.16
				h-48.015V338.504z"/>
			<path d="M414.976,386.429c3.411,1.257,6.815,2.538,10.215,3.84v-7.273c0-8.517,6.906-15.422,15.422-15.422
				c8.516,0,15.422,6.904,15.422,15.422v19.76c2.451,1.047,4.901,2.087,7.345,3.157c0.969-1.337,1.925-2.685,2.868-4.04v-56.73
				h-51.272V386.429z"/>
			<polygon points="422.409,314.299 458.817,314.299 440.613,290.275 			"/>
		</g>
	</g>
</g>
<g>
</g>
<g>
</g>
<g>
</g>
<g>
</g>
<g>
</g>
<g>
</g>
<g>
</g>
<g>
</g>
<g>
</g>
<g>
</g>
<g>
</g>
<g>
</g>
<g>
</g>
<g>
</g>
<g>
</g>
</svg>
